<svg version="1.1" xmlns="http://www.w3.org/2000/svg" xmlns:xlink="http://www.w3.org/1999/xlink" x="0px" y="0px" width="128px"
	 height="128px" viewBox="0 0 128 128" style="enable-background:new 0 0 128 128;" xml:space="preserve">
<rect style="fill:#808080;" width="128" height="128"/>
<g>
	<g>
		<g>
			<line style="fill:none;stroke:#FFFFFF;stroke-width:2;stroke-miterlimit:10;" x1="64" y1="16" x2="64.897" y2="16.442"/>
			
				<line style="fill:none;stroke:#FFFFFF;stroke-width:2;stroke-miterlimit:10;stroke-dasharray:2.0193,2.0193;" x1="66.709" y1="17.334" x2="105.656" y2="36.517"/>
			
				<line style="fill:none;stroke:#FFFFFF;stroke-width:2;stroke-miterlimit:10;" x1="106.562" y1="36.963" x2="107.459" y2="37.405"/>
		</g>
	</g>
	<g>
		<g>
			<line style="fill:none;stroke:#FFFFFF;stroke-width:2;stroke-miterlimit:10;" x1="64" y1="16" x2="63.103" y2="16.442"/>
			
				<line style="fill:none;stroke:#FFFFFF;stroke-width:2;stroke-miterlimit:10;stroke-dasharray:2.0193,2.0193;" x1="61.292" y1="17.334" x2="22.343" y2="36.517"/>
			<line style="fill:none;stroke:#FFFFFF;stroke-width:2;stroke-miterlimit:10;" x1="21.438" y1="36.963" x2="20.541" y2="37.405"/>
		</g>
	</g>
	<g>
		<g>
			<line style="fill:none;stroke:#FFFFFF;stroke-width:2;stroke-miterlimit:10;" x1="20.541" y1="37.405" x2="20.541" y2="38.405"/>
			
				<line style="fill:none;stroke:#FFFFFF;stroke-width:2;stroke-miterlimit:10;stroke-dasharray:2.0476,2.0476;" x1="20.541" y1="40.453" x2="20.541" y2="88.571"/>
			<line style="fill:none;stroke:#FFFFFF;stroke-width:2;stroke-miterlimit:10;" x1="20.541" y1="89.595" x2="20.541" y2="90.595"/>
		</g>
	</g>
	<g>
		<g>
			<line style="fill:none;stroke:#FFFFFF;stroke-width:2;stroke-miterlimit:10;" x1="20.541" y1="90.595" x2="21.438" y2="91.036"/>
			
				<line style="fill:none;stroke:#FFFFFF;stroke-width:2;stroke-miterlimit:10;stroke-dasharray:2.0193,2.0193;" x1="23.249" y1="91.929" x2="62.197" y2="111.112"/>
			<line style="fill:none;stroke:#FFFFFF;stroke-width:2;stroke-miterlimit:10;" x1="63.103" y1="111.559" x2="64" y2="112"/>
		</g>
	</g>
	<g>
		<g>
			<line style="fill:none;stroke:#FFFFFF;stroke-width:2;stroke-miterlimit:10;" x1="64" y1="112" x2="64.897" y2="111.559"/>
			
				<line style="fill:none;stroke:#FFFFFF;stroke-width:2;stroke-miterlimit:10;stroke-dasharray:2.0193,2.0193;" x1="66.709" y1="110.666" x2="105.656" y2="91.482"/>
			
				<line style="fill:none;stroke:#FFFFFF;stroke-width:2;stroke-miterlimit:10;" x1="106.562" y1="91.036" x2="107.459" y2="90.595"/>
		</g>
	</g>
	<g>
		<g>
			
				<line style="fill:none;stroke:#FFFFFF;stroke-width:2;stroke-miterlimit:10;" x1="107.459" y1="90.595" x2="107.459" y2="89.595"/>
			
				<line style="fill:none;stroke:#FFFFFF;stroke-width:2;stroke-miterlimit:10;stroke-dasharray:2.0476,2.0476;" x1="107.459" y1="87.547" x2="107.459" y2="39.429"/>
			
				<line style="fill:none;stroke:#FFFFFF;stroke-width:2;stroke-miterlimit:10;" x1="107.459" y1="38.405" x2="107.459" y2="37.405"/>
		</g>
	</g>
	<g>
		<g>
			<line style="fill:none;stroke:#FFFFFF;stroke-width:2;stroke-miterlimit:10;" x1="20.541" y1="37.405" x2="21.438" y2="37.847"/>
			
				<line style="fill:none;stroke:#FFFFFF;stroke-width:2;stroke-miterlimit:10;stroke-dasharray:2.0193,2.0193;" x1="23.25" y1="38.739" x2="62.197" y2="57.922"/>
			<line style="fill:none;stroke:#FFFFFF;stroke-width:2;stroke-miterlimit:10;" x1="63.103" y1="58.369" x2="64" y2="58.811"/>
		</g>
	</g>
	<g>
		<g>
			
				<line style="fill:none;stroke:#FFFFFF;stroke-width:2;stroke-miterlimit:10;" x1="107.459" y1="37.405" x2="106.563" y2="37.847"/>
			
				<line style="fill:none;stroke:#FFFFFF;stroke-width:2;stroke-miterlimit:10;stroke-dasharray:2.0193,2.0193;" x1="104.75" y1="38.739" x2="65.803" y2="57.923"/>
			<line style="fill:none;stroke:#FFFFFF;stroke-width:2;stroke-miterlimit:10;" x1="64.897" y1="58.368" x2="64" y2="58.811"/>
		</g>
	</g>
	<g>
		<g>
			<line style="fill:none;stroke:#FFFFFF;stroke-width:2;stroke-miterlimit:10;" x1="64" y1="111.928" x2="64" y2="110.928"/>
			
				<line style="fill:none;stroke:#FFFFFF;stroke-width:2;stroke-miterlimit:10;stroke-dasharray:2.0476,2.0476;" x1="64" y1="108.881" x2="64" y2="60.763"/>
			<line style="fill:none;stroke:#FFFFFF;stroke-width:2;stroke-miterlimit:10;" x1="64" y1="59.739" x2="64" y2="58.739"/>
		</g>
	</g>
</g>
</svg>
